<svg data-v-0dd9719b="" version="1.0" xmlns="http://www.w3.org/2000/svg" xmlns:xlink="http://www.w3.org/1999/xlink" width="100%" height="100%" viewBox="0 0 340.000000 250.000000" preserveAspectRatio="xMidYMid meet" color-interpolation-filters="sRGB" style="margin: auto;"> <rect data-v-0dd9719b="" x="0" y="0" width="100%" height="100%" fill="#fff" fill-opacity="1" class="background"></rect> <rect data-v-0dd9719b="" x="0" y="0" width="100%" height="100%" fill="url(#watermark)" fill-opacity="1" class="watermarklayer"></rect> <g data-v-0dd9719b="" fill="#333" class="icon-text-wrapper icon-svg-group iconsvg" transform="translate(48.37000274658203,96.05874824523926)"><g class="iconsvg-imagesvg" transform="translate(0,0.04591941833496094)"><g><rect fill="#333" fill-opacity="0" stroke-width="2" x="0" y="0" width="60" height="57.79066295522187" class="image-rect"></rect> <svg x="0" y="0" width="60" height="57.79066295522187" filtersec="colorsb6633796149" class="image-svg-svg primary" style="overflow: visible;"><svg xmlns="http://www.w3.org/2000/svg" viewBox="-0.0030263192020356655 0.003950132988393307 52.69758605957031 50.756935119628906"><path d="M34.39 17.51V9.66c0-1 0-1.05-1-1.43L21 3.25c-1.27-.51-1.67-.23-1.67 1.17V49.1c0 1.37-.29 1.68-1.65 1.66-5.6-.06-11.18-.14-16.76-.19a.8.8 0 0 1-.92-.86V8.42C0 7.29.11 7.13 1.17 6.7L17.39.18a2.14 2.14 0 0 1 1.7 0c5.46 2.2 10.91 4.38 16.4 6.57.85.34 1 .62 1 1.51v7.86c0 .39-.09.62-.48.74s-1.01.41-1.62.65z" fill="#158478"></path><path d="M42.35 34.86v14.66c0 1-.19 1.24-1.25 1.24h-9.32c-1.06 0-1.27-.2-1.27-1.23V21.77a1.19 1.19 0 0 1 .86-1.27c3.22-1.26 6.43-2.57 9.65-3.82a1.86 1.86 0 0 1 1.19 0c3.24 1.26 6.47 2.57 9.7 3.85a1.07 1.07 0 0 1 .78 1.13v28.49c0 .1-.45.54-.71.56s-.53-.26-.67-.49a1.61 1.61 0 0 1-.09-.8V23c0-1.08 0-1.12-1-1.53L43.88 19c-1.09-.43-1.53-.13-1.53 1.05z" fill="#0f6357"></path></svg></svg> <!----></g></g> <g transform="translate(67,0)"><g data-gra="path-name" fill-rule="" class="tp-name iconsvg-namesvg" transform="translate(0,0)"><g transform="scale(1)"><g><path d="M26.68-32.4Q30.78-29.38 34.88-27.22 38.97-25.06 44.19-22.99L44.19-22.99 40.5-15.84Q36.77-17.46 33.62-19.57L33.62-19.57 33.62-16.7 11.47-16.7 11.47-19.48Q7.96-17.73 4.14-16.11L4.14-16.11 1.8-19.75Q7.69-24.25 11.36-28.01 15.03-31.77 19.98-38.25L19.98-38.25 27.99-34.29 26.68-32.4ZM17.32-22.99L29.16-22.99Q26.1-25.79 23.89-28.98L23.89-28.98Q20.75-25.43 17.32-22.99L17.32-22.99ZM37.08-14.22L37.08 4.54 29.43 4.54 29.43 2.92 15.93 2.92 15.93 4.54 8.19 4.54 8.28-14.22 15.93-14.22 15.93-11.38Q16.29-12.87 17.48-13.54 18.68-14.22 20.79-14.22L20.79-14.22 37.08-14.22ZM15.93-8.32L15.93-3.06 29.43-3.1 29.43-8.32 15.93-8.32ZM54.54-32.04Q54.9-33.48 55.75-34.36 56.61-35.23 57.83-35.23L57.83-35.23 62.82-35.28 62.82-0.32Q62.82 2.48 61.88 3.53 60.93 4.59 58.81 4.59L58.81 4.59 55.39 4.59 54.81 0.72 53.82 0.72 53.82-0.85 56.84-0.85 56.84-8.28 54.13-8.28Q53.82-4.09 52.97-1.19 52.11 1.71 50.45 4.41L50.45 4.41 47.25 3.15Q47.97-0.94 48.24-4.41 48.51-7.88 48.58-12.94 48.65-18 48.69-30.69L48.69-30.69 48.69-35.05 54.54-35.05 54.54-32.04ZM83.75-5.76L88.06-4.95Q88.06-1.3 86.76 1.19 85.45 3.69 82.71 3.69L82.71 3.69 69.66 3.69Q67 3.69 65.52 1.91 64.03 0.14 64.03-3.1L64.03-3.1 64.03-35.05 70.97-35.05 70.97-32.09Q71.5-33.48 72.74-34.27 73.98-35.05 75.91-35.05L75.91-35.05 86.27-35.05 86.27-11.92 70.97-11.92 70.97-2.92 81.9-2.92 81.9-7.96 83.75-7.96 83.75-5.76ZM54.54-24.97L56.84-24.97 56.84-29.11 54.54-29.11 54.54-24.97ZM72.81-17.86L72.81-29.11 70.97-29.11 70.97-17.86 72.81-17.86ZM77.98-17.86L79.83-17.86 79.83-29.11 77.98-29.11 77.98-17.86ZM54.45-14.4L56.84-14.4 56.84-18.86 54.54-18.86 54.45-14.4ZM132.39-19.48L122.27-19.48Q121.5-17.91 121-17.14L121-17.14 130.45-17.14 130.45 4.59 123.39 4.59 123.39 2.88 115.11 2.92 115.11 4.59 108.05 4.59 108.05-17.14 114.97-17.14 115.33-19.48 107.19-19.48 107.19-22.05Q105.97-20.07 104.27-17.95L104.27-17.95 104.27 4.68 97.33 4.68 97.38-11.34Q95.81-10.13 94.41-9.18L94.41-9.18 91.84-12.11Q94.55-15.25 96.41-18.07 98.28-20.88 100.13-24.88L100.13-24.88 92.88-24.88 92.88-33.88 100.35-33.88 100.35-31.5Q100.71-32.8 101.61-33.34 102.51-33.88 103.95-33.88L103.95-33.88 109.71-33.88Q109.13-34.38 107.91-35.28L107.91-35.28 109.98-38.25Q114.93-37.35 119.38-35.64L119.38-35.64 118.08-33.88 131.85-33.88 131.85-25.92 124.38-25.92 124.38-28.39 100.35-28.39 100.35-25.33 101.52-27.9 109.03-25.11 108.86-24.79 132.39-24.79 132.39-19.48ZM115.11-9.63L123.39-9.63 123.39-12.01 115.11-12.01 115.11-9.63ZM115.11-4.59L115.11-2.29 123.39-2.34 123.39-4.59 115.11-4.59ZM178.06-29.7L178.06-19.98 174.96-19.98 174.96-17.23 167.26-17.19 167.26-20.38 171.99-20.38 171.99-21.42 167.26-21.38 167.26-24.61 171.99-24.61 171.99-25.65 166.32-25.65 166.32-17.37 159.97-17.37 159.97-25.65 154.62-25.65 154.62-24.7 159.16-24.7 159.16-21.55 154.62-21.51 154.62-20.52 159.16-20.52 159.16-17.37 151.47-17.32 151.47-19.98 148.54-19.98 148.54-28.35 147.28-26.28 147.28 4.54 140.9 4.54 140.9-17.91Q139.32-16.2 138.33-15.3L138.33-15.3 136.44-17.86Q139.19-23.13 140.83-27.38 142.47-31.63 144.22-37.35L144.22-37.35 149.85-34.78 149.85-35.55 177.34-35.55 177.34-31.05 166.32-31.05 166.32-29.7 178.06-29.7ZM158.13-29.7L159.97-29.7 159.97-31.05 149.99-31.05 149.26-29.7 154.62-29.7 154.62-27.9Q154.98-28.84 155.99-29.27 157-29.7 158.13-29.7L158.13-29.7ZM148.59-11.34L148.59-16.11 177.93-16.11 177.93-11.34 164.84-11.34 163.35-9.72 177.16-9.72 177.16-1.17Q177.16 4.59 173.12 4.59L173.12 4.59 170.73 4.59 170.14 1.53 169.2 1.53 169.2 3.28 164.43 3.28 164.43-5.35 162.36-5.35 162.36 3.28 157.59 3.28 157.59-5.35 155.56-5.35 155.56 4.59 149.67 4.59 149.67-9.72 157.41-9.72Q157.59-10.08 157.77-10.46 157.95-10.84 158.18-11.34L158.18-11.34 148.59-11.34ZM171.22-0.09L171.22-5.35 169.2-5.35 169.2-0.09 171.22-0.09Z" transform="translate(-1.7999999523162842, 38.25)"></path></g> <!----> <!----> <!----> <!----> <!----> <!----> <!----></g></g> <g data-gra="path-slogan" fill-rule="" class="tp-slogan iconsvg-slogansvg" fill="#333" transform="translate(5,48.93000030517578)"><rect x="0" height="1" y="3.9750003814697266" width="44.85499572753906"></rect> <rect height="1" y="3.9750003814697266" width="44.85499572753906" x="121.40499877929688"></rect> <g transform="translate(47.85499572753906,0)"><g transform="scale(1)"><path d="M2.06-5.06L6.56-5.06L6.56-8.58L7.73-8.58L7.73 0L6.56 0L6.56-3.98L2.06-3.98L2.06 0L0.89 0L0.89-8.58L2.06-8.58L2.06-5.06ZM10.83-1.03L15.98-1.03L15.98 0L9.66 0L9.66-8.58L15.89-8.58L15.89-7.59L10.83-7.59L10.83-4.92L15.52-4.92L15.52-3.89L10.83-3.89L10.83-1.03ZM23.02-3.89L18.80-3.89L18.80 0L17.63 0L17.63-8.58L23.58-8.58L23.58-7.59L18.80-7.59L18.80-4.92L23.02-4.92L23.02-3.89ZM26.06-1.03L31.22-1.03L31.22 0L24.89 0L24.89-8.58L31.13-8.58L31.13-7.59L26.06-7.59L26.06-4.92L30.75-4.92L30.75-3.89L26.06-3.89L26.06-1.03ZM32.91-8.58L34.08-8.58L34.08 0L32.91 0L32.91-8.58ZM45.66-6.09L45.66-6.09L44.58-6.09Q44.48-7.73 42.42-7.83L42.42-7.83Q40.50-7.78 40.50-6.33L40.50-6.33Q40.50-5.39 41.53-5.25L41.53-5.25L43.97-4.69Q45.89-4.22 45.89-2.34L45.89-2.34Q45.84 0.05 42.52 0.14L42.52 0.14Q40.69 0.14 39.94-0.61L39.94-0.61Q39-1.31 39.05-2.77L39.05-2.77L40.17-2.77Q40.22-0.80 42.52-0.75L42.52-0.75Q44.77-0.80 44.81-2.20L44.81-2.20Q45-3.38 42.94-3.75L42.94-3.75L41.16-4.13Q39.33-4.64 39.33-6.19L39.33-6.19Q39.47-8.72 42.33-8.81L42.33-8.81Q45.56-8.81 45.66-6.09ZM53.02-3.19L53.02-8.58L54.19-8.58L54.19-3.05Q54.05 0.05 50.67 0.14L50.67 0.14Q47.53 0.05 47.39-2.86L47.39-2.86L47.39-8.58L48.56-8.58L48.56-3.19Q48.61-0.84 50.72-0.80L50.72-0.80Q53.02-0.84 53.02-3.19L53.02-3.19ZM60.09-3.70L57.28-3.70L57.28 0L56.11 0L56.11-8.58L60.09-8.58Q62.95-8.58 62.95-6.28L62.95-6.28Q62.95-4.88 61.73-4.22L61.73-4.22Q62.77-3.94 62.77-2.58L62.77-2.58L62.86-1.03Q62.81-0.38 63.28-0.19L63.28-0.19L63.28 0L61.83 0Q61.69-0.61 61.64-2.16L61.64-2.16Q61.69-3.70 60.09-3.70L60.09-3.70ZM60.19-7.64L57.28-7.64L57.28-4.69L60-4.69Q61.73-4.69 61.73-6.19L61.73-6.19Q61.73-7.64 60.19-7.64L60.19-7.64ZM70.27-3.19L70.27-8.58L71.44-8.58L71.44-3.05Q71.30 0.05 67.92 0.14L67.92 0.14Q64.78 0.05 64.64-2.86L64.64-2.86L64.64-8.58L65.81-8.58L65.81-3.19Q65.86-0.84 67.97-0.80L67.97-0.80Q70.27-0.84 70.27-3.19L70.27-3.19Z" transform="translate(-0.890625, 8.8125)"></path></g></g></g></g></g><defs v-gra="od"></defs></svg>